<mxfile host="app.diagrams.net" modified="2021-04-11T12:31:48.133Z" agent="5.0 (Windows NT 10.0; Win64; x64) AppleWebKit/537.36 (KHTML, like Gecko) Chrome/88.0.4324.104 Safari/537.36" etag="wKBmT4rFI6mD8orgfAsG" version="14.5.10" type="github">
  <diagram id="kgpKYQtTHZ0yAKxKKP6v" name="Page-1">
    <mxGraphModel dx="1119" dy="509" grid="0" gridSize="10" guides="1" tooltips="1" connect="1" arrows="1" fold="1" page="0" pageScale="1" pageWidth="850" pageHeight="1100" background="none" math="0" shadow="0">
      <root>
        <mxCell id="0" />
        <mxCell id="1" parent="0" />
        <mxCell id="3nuBFxr9cyL0pnOWT2aG-1" value="video" style="shape=umlLifeline;perimeter=lifelinePerimeter;container=1;collapsible=0;recursiveResize=0;rounded=0;shadow=0;strokeWidth=1;" parent="1" vertex="1">
          <mxGeometry x="50" y="80" width="100" height="400" as="geometry" />
        </mxCell>
        <mxCell id="3nuBFxr9cyL0pnOWT2aG-2" value="" style="points=[];perimeter=orthogonalPerimeter;rounded=0;shadow=0;strokeWidth=1;" parent="3nuBFxr9cyL0pnOWT2aG-1" vertex="1">
          <mxGeometry x="45" y="70" width="10" height="260" as="geometry" />
        </mxCell>
        <mxCell id="3nuBFxr9cyL0pnOWT2aG-5" value="saveBase64Video" style="shape=umlLifeline;perimeter=lifelinePerimeter;container=1;collapsible=0;recursiveResize=0;rounded=0;shadow=0;strokeWidth=1;" parent="1" vertex="1">
          <mxGeometry x="180" y="80" width="100" height="400" as="geometry" />
        </mxCell>
        <mxCell id="3nuBFxr9cyL0pnOWT2aG-6" value="" style="points=[];perimeter=orthogonalPerimeter;rounded=0;shadow=0;strokeWidth=1;" parent="3nuBFxr9cyL0pnOWT2aG-5" vertex="1">
          <mxGeometry x="45" y="80" width="10" height="40" as="geometry" />
        </mxCell>
        <mxCell id="3nuBFxr9cyL0pnOWT2aG-7" value="返回重命名视频地址" style="verticalAlign=bottom;endArrow=open;dashed=1;endSize=8;exitX=0;exitY=0.95;shadow=0;strokeWidth=1;fontSize=12;" parent="1" source="3nuBFxr9cyL0pnOWT2aG-6" target="3nuBFxr9cyL0pnOWT2aG-2" edge="1">
          <mxGeometry relative="1" as="geometry">
            <mxPoint x="275" y="236" as="targetPoint" />
          </mxGeometry>
        </mxCell>
        <mxCell id="3nuBFxr9cyL0pnOWT2aG-8" value="转换为base64码传输" style="verticalAlign=bottom;endArrow=block;entryX=0;entryY=0;shadow=0;strokeWidth=1;fontSize=12;" parent="1" source="3nuBFxr9cyL0pnOWT2aG-2" target="3nuBFxr9cyL0pnOWT2aG-6" edge="1">
          <mxGeometry relative="1" as="geometry">
            <mxPoint x="275" y="160" as="sourcePoint" />
          </mxGeometry>
        </mxCell>
        <mxCell id="_wDkyi0nOaDy0htp3lA6-4" value="recognition" style="shape=umlLifeline;perimeter=lifelinePerimeter;container=1;collapsible=0;recursiveResize=0;rounded=0;shadow=0;strokeWidth=1;" vertex="1" parent="1">
          <mxGeometry x="290" y="80" width="100" height="400" as="geometry" />
        </mxCell>
        <mxCell id="_wDkyi0nOaDy0htp3lA6-5" value="" style="points=[];perimeter=orthogonalPerimeter;rounded=0;shadow=0;strokeWidth=1;" vertex="1" parent="_wDkyi0nOaDy0htp3lA6-4">
          <mxGeometry x="45" y="150" width="10" height="40" as="geometry" />
        </mxCell>
        <mxCell id="_wDkyi0nOaDy0htp3lA6-6" value="user" style="shape=umlLifeline;perimeter=lifelinePerimeter;container=1;collapsible=0;recursiveResize=0;rounded=0;shadow=0;strokeWidth=1;" vertex="1" parent="1">
          <mxGeometry x="-60" y="80" width="100" height="400" as="geometry" />
        </mxCell>
        <mxCell id="3nuBFxr9cyL0pnOWT2aG-3" value="上传" style="verticalAlign=bottom;startArrow=oval;endArrow=block;startSize=8;shadow=0;strokeWidth=1;" parent="1" target="3nuBFxr9cyL0pnOWT2aG-2" edge="1" source="_wDkyi0nOaDy0htp3lA6-6">
          <mxGeometry relative="1" as="geometry">
            <mxPoint x="-10" y="150" as="sourcePoint" />
            <mxPoint x="90" y="150" as="targetPoint" />
            <Array as="points">
              <mxPoint x="35" y="150" />
            </Array>
          </mxGeometry>
        </mxCell>
        <mxCell id="_wDkyi0nOaDy0htp3lA6-9" value="" style="endArrow=classic;html=1;" edge="1" parent="1" target="_wDkyi0nOaDy0htp3lA6-5">
          <mxGeometry width="50" height="50" relative="1" as="geometry">
            <mxPoint x="105" y="232" as="sourcePoint" />
            <mxPoint x="320" y="260" as="targetPoint" />
          </mxGeometry>
        </mxCell>
        <mxCell id="_wDkyi0nOaDy0htp3lA6-12" value="&lt;font style=&quot;font-size: 11px&quot;&gt;按帧对视频进行行为识别&lt;/font&gt;" style="text;html=1;align=center;verticalAlign=middle;resizable=0;points=[];autosize=1;strokeColor=none;" vertex="1" parent="1">
          <mxGeometry x="145" y="210" width="150" height="20" as="geometry" />
        </mxCell>
        <mxCell id="_wDkyi0nOaDy0htp3lA6-14" value="返回有行为识别结果的视频地址" style="verticalAlign=bottom;endArrow=open;dashed=1;endSize=8;shadow=0;strokeWidth=1;fontSize=12;entryX=0.957;entryY=0.465;entryDx=0;entryDy=0;entryPerimeter=0;" edge="1" parent="1" source="_wDkyi0nOaDy0htp3lA6-4" target="3nuBFxr9cyL0pnOWT2aG-2">
          <mxGeometry relative="1" as="geometry">
            <mxPoint x="110" y="270" as="targetPoint" />
            <mxPoint x="230" y="270" as="sourcePoint" />
          </mxGeometry>
        </mxCell>
        <mxCell id="_wDkyi0nOaDy0htp3lA6-16" value="Ffmpeg" style="shape=umlLifeline;perimeter=lifelinePerimeter;container=1;collapsible=0;recursiveResize=0;rounded=0;shadow=0;strokeWidth=1;" vertex="1" parent="1">
          <mxGeometry x="400" y="80" width="100" height="400" as="geometry" />
        </mxCell>
        <mxCell id="_wDkyi0nOaDy0htp3lA6-17" value="" style="points=[];perimeter=orthogonalPerimeter;rounded=0;shadow=0;strokeWidth=1;" vertex="1" parent="_wDkyi0nOaDy0htp3lA6-16">
          <mxGeometry x="45" y="220" width="10" height="40" as="geometry" />
        </mxCell>
        <mxCell id="_wDkyi0nOaDy0htp3lA6-18" value="" style="endArrow=classic;html=1;exitX=0.937;exitY=0.577;exitDx=0;exitDy=0;exitPerimeter=0;" edge="1" parent="1" source="3nuBFxr9cyL0pnOWT2aG-2" target="_wDkyi0nOaDy0htp3lA6-16">
          <mxGeometry width="50" height="50" relative="1" as="geometry">
            <mxPoint x="110" y="300" as="sourcePoint" />
            <mxPoint x="332.85" y="300" as="targetPoint" />
          </mxGeometry>
        </mxCell>
        <mxCell id="_wDkyi0nOaDy0htp3lA6-19" value="&lt;span style=&quot;font-size: 11px&quot;&gt;将识别完成的视频转化为可播放的统一格式&lt;/span&gt;" style="text;html=1;align=center;verticalAlign=middle;resizable=0;points=[];autosize=1;strokeColor=none;" vertex="1" parent="1">
          <mxGeometry x="150" y="280" width="240" height="20" as="geometry" />
        </mxCell>
        <mxCell id="_wDkyi0nOaDy0htp3lA6-20" value="返回处理结果" style="verticalAlign=bottom;endArrow=open;dashed=1;endSize=8;shadow=0;strokeWidth=1;fontSize=12;" edge="1" parent="1" source="_wDkyi0nOaDy0htp3lA6-16">
          <mxGeometry relative="1" as="geometry">
            <mxPoint x="103" y="340" as="targetPoint" />
            <mxPoint x="337.35" y="340.12" as="sourcePoint" />
          </mxGeometry>
        </mxCell>
        <mxCell id="_wDkyi0nOaDy0htp3lA6-21" value="Storage" style="shape=umlLifeline;perimeter=lifelinePerimeter;container=1;collapsible=0;recursiveResize=0;rounded=0;shadow=0;strokeWidth=1;" vertex="1" parent="1">
          <mxGeometry x="510" y="80" width="100" height="400" as="geometry" />
        </mxCell>
        <mxCell id="_wDkyi0nOaDy0htp3lA6-22" value="" style="points=[];perimeter=orthogonalPerimeter;rounded=0;shadow=0;strokeWidth=1;" vertex="1" parent="_wDkyi0nOaDy0htp3lA6-21">
          <mxGeometry x="45" y="220" width="10" height="40" as="geometry" />
        </mxCell>
        <mxCell id="_wDkyi0nOaDy0htp3lA6-28" value="储存" style="verticalAlign=bottom;endArrow=open;dashed=1;endSize=8;shadow=0;strokeWidth=1;fontSize=12;exitX=0.975;exitY=0.193;exitDx=0;exitDy=0;exitPerimeter=0;entryX=-0.003;entryY=0.212;entryDx=0;entryDy=0;entryPerimeter=0;" edge="1" parent="1" source="_wDkyi0nOaDy0htp3lA6-17" target="_wDkyi0nOaDy0htp3lA6-22">
          <mxGeometry relative="1" as="geometry">
            <mxPoint x="550" y="308" as="targetPoint" />
            <mxPoint x="460" y="307" as="sourcePoint" />
          </mxGeometry>
        </mxCell>
        <mxCell id="_wDkyi0nOaDy0htp3lA6-30" value="success" style="verticalAlign=bottom;endArrow=open;dashed=1;endSize=8;shadow=0;strokeWidth=1;fontSize=12;exitX=-0.035;exitY=0.742;exitDx=0;exitDy=0;exitPerimeter=0;" edge="1" parent="1" source="_wDkyi0nOaDy0htp3lA6-22">
          <mxGeometry relative="1" as="geometry">
            <mxPoint x="454" y="330" as="targetPoint" />
            <mxPoint x="569.5" y="345.08000000000004" as="sourcePoint" />
          </mxGeometry>
        </mxCell>
        <mxCell id="_wDkyi0nOaDy0htp3lA6-31" value="查看结果" style="verticalAlign=bottom;endArrow=open;dashed=1;endSize=8;shadow=0;strokeWidth=1;fontSize=12;entryX=0.479;entryY=0.798;entryDx=0;entryDy=0;entryPerimeter=0;exitX=0.111;exitY=0.958;exitDx=0;exitDy=0;exitPerimeter=0;" edge="1" parent="1" source="3nuBFxr9cyL0pnOWT2aG-2" target="_wDkyi0nOaDy0htp3lA6-6">
          <mxGeometry relative="1" as="geometry">
            <mxPoint x="-12" y="410" as="targetPoint" />
            <mxPoint x="90" y="399" as="sourcePoint" />
          </mxGeometry>
        </mxCell>
      </root>
    </mxGraphModel>
  </diagram>
</mxfile>
